# xmcd
#
# Track frame offsets:
#	150
#	15597
#	34177
#	45595
#	56600
#	70426
#	80758
#	91530
#	104345
#	119535
#	133411
#	143618
#	158972
#	172436
#	196082
#	215684
#	228328
#	243799
#	261635
#	275585
#	290696
#
# Disc length: 4059 seconds
#
# Revision: 1
# Processed by: cddbd v1.5.2PL0 Copyright (c) Steve Scherf et al.
# Submitted via: audiograbber 1.83.01
#
DISCID=420fd915
DTITLE=Diamond Back of Texas - Diamond Back of Texas 020
DYEAR=2008
DGENRE=Country
TTITLE0=Satin Sheets  - Marilyn Mcconnell
TTITLE1=Come A Little Bit Closer  - Patricia and B Jeff Stone
TTITLE2=The Track You Left On Me  - Bruce Greaves
TTITLE3=Brand New Shoes - Rain Check
TTITLE4=Grandma´s Place  - Steve Cooper
TTITLE5=Branded By Your Love - Juli Maners
TTITLE6=18 Wheels - Steve Bounds
TTITLE7=A Heavy Weight Woman  - Mitch Snow
TTITLE8=A Soldiers Wanders - Mak Kaylor
TTITLE9=Lady Luck  - William Ray
TTITLE10=Talking Crazy  - Raincheck
TTITLE11=The Do Wop Cajun  - Cajun Dave Becel
TTITLE12=The Greatest Man  - Bernie Underwood
TTITLE13=What Can We Do  - Annie Harrison
TTITLE14=When  - Juli Maners
TTITLE15=Wildwood Dream  - Dave Besley
TTITLE16=The End Of Forever  - East Craft
TTITLE17=My Nashvile Dreams  - Fraser Newcombe
TTITLE18=The Eyes Of A Child  - Cleda Jane Cochran
TTITLE19=You´re So Good When You´re Bad - B. Jeff Stone
TTITLE20=Peace In The Valley  - Patricia Stone
EXTD=
EXTT0=
EXTT1=
EXTT2=
EXTT3=
EXTT4=
EXTT5=
EXTT6=
EXTT7=
EXTT8=
EXTT9=
EXTT10=
EXTT11=
EXTT12=
EXTT13=
EXTT14=
EXTT15=
EXTT16=
EXTT17=
EXTT18=
EXTT19=
EXTT20=
PLAYORDER=
